<svg width="30" height="30" viewBox="0 0 30 30" fill="none" xmlns="http://www.w3.org/2000/svg">
<path d="M18.7422 15L29.217 4.52527C29.7141 4.02901 29.9937 3.3556 29.9944 2.65318C29.995 1.95075 29.7165 1.27685 29.2203 0.779721C28.724 0.282592 28.0506 0.00295977 27.3482 0.00233943C26.6458 0.0017191 25.9719 0.280162 25.4747 0.776413L15 11.2511L4.52527 0.776413C4.02814 0.279284 3.35389 0 2.65084 0C1.94779 0 1.27354 0.279284 0.776413 0.776413C0.279284 1.27354 0 1.94779 0 2.65084C0 3.35389 0.279284 4.02814 0.776413 4.52527L11.2511 15L0.776413 25.4747C0.279284 25.9719 0 26.6461 0 27.3492C0 28.0522 0.279284 28.7265 0.776413 29.2236C1.27354 29.7207 1.94779 30 2.65084 30C3.35389 30 4.02814 29.7207 4.52527 29.2236L15 18.7489L25.4747 29.2236C25.9719 29.7207 26.6461 30 27.3492 30C28.0522 30 28.7265 29.7207 29.2236 29.2236C29.7207 28.7265 30 28.0522 30 27.3492C30 26.6461 29.7207 25.9719 29.2236 25.4747L18.7422 15Z" fill="#F9F9F9"/>
</svg>
